<svg width="738" height="738" viewBox="0 0 738 738" fill="none" xmlns="http://www.w3.org/2000/svg">
<circle cx="369" cy="369" r="369" fill="#434A50"/>
<path d="M358.143 172.555C359.888 172.553 361.633 172.553 363.378 172.561C365.614 172.572 367.849 172.58 370.085 172.577C371.846 172.575 373.607 172.575 375.368 172.578C376.216 172.58 377.064 172.583 377.911 172.585C383.765 172.582 389.551 172.718 395.334 173.71C396.936 174.182 398.396 174.695 399.906 175.404C401.232 176.173 402.402 176.984 403.585 177.957C404.634 178.977 405.564 180.018 406.473 181.164C407.301 182.4 407.928 183.596 408.535 184.955C409.013 186.611 409.364 188.266 409.706 189.955C410.071 192.237 410.19 194.454 410.218 196.763C410.218 197.63 410.218 197.63 410.218 198.479C410.238 200.35 410.257 202.22 410.268 204.09C410.277 206.021 410.289 205.952 410.303 207.883C410.315 209.114 410.328 210.345 410.34 211.576C410.341 212.169 410.343 212.745 410.344 213.32C410.351 214.14 410.351 214.14 410.358 214.943C410.365 216.365 410.365 216.365 410.491 217.671C410.627 218.116 410.759 218.549 410.891 218.981C411.087 219.367 411.278 219.741 411.469 220.115C412.256 220.779 412.256 220.779 413.027 221.43C414.097 222.043 414.098 222.043 415.381 222.561C415.9 222.667 416.403 222.771 416.906 222.875C421.027 223.414 425.098 223.679 429.252 223.774C430.754 223.801 432.257 223.829 433.759 223.858C434.87 223.883 434.871 223.882 435.96 223.906C438.59 223.954 441.136 224.13 443.739 224.516C446.009 225.082 446.009 225.082 448.14 225.982C448.942 226.569 448.943 226.57 449.73 227.145C450.187 227.581 450.63 228.004 451.073 228.428C452.387 229.538 452.388 229.538 453.519 230.872C453.872 231.485 454.215 232.08 454.558 232.675C455.553 234.965 456.355 237.248 456.941 239.673C457.069 240.832 457.194 241.994 457.244 243.159C457.256 243.605 457.266 244.038 457.277 244.471C457.486 254.498 457.487 254.498 457.422 264.528C457.419 265.032 457.415 265.52 457.412 266.009C457.408 266.945 457.404 267.883 457.399 268.819C457.385 270.353 457.394 271.876 457.43 273.41C457.596 274.075 457.758 274.721 457.919 275.366C458.22 275.792 458.512 276.206 458.805 276.619C459.335 277.024 459.849 277.418 460.363 277.812C461.502 278.223 461.503 278.223 462.867 278.573C466.534 279.44 466.535 279.44 474.665 280.012C476.125 280.113 477.584 280.22 479.043 280.332C481.197 280.53 483.053 280.798 485.148 281.369C485.965 281.794 485.965 281.795 486.767 282.212C487.519 282.792 487.519 282.791 488.257 283.359C489.62 284.728 490.918 286.098 492.146 287.59C492.904 288.736 492.904 288.736 493.398 289.912C493.658 290.76 493.887 291.618 494.101 292.479C494.881 296.91 495.196 301.294 495.239 305.788C495.242 306.511 495.245 307.213 495.247 307.914C495.277 311.01 495.303 314.106 495.323 317.202C495.339 319.564 495.355 321.926 495.378 324.288C495.385 325.048 495.392 325.786 495.399 326.524C495.402 327.256 495.405 327.967 495.407 328.678C495.414 329.359 495.421 330.02 495.428 330.682C495.439 332.437 495.438 332.437 495.567 334.04C496.019 335.648 496.02 335.648 496.546 336.974C496.795 337.348 497.037 337.711 497.279 338.074C497.695 338.365 498.099 338.647 498.502 338.93C499.167 339.127 499.812 339.318 500.457 339.51C502.966 339.937 502.966 339.937 508.342 340.183C511.278 340.293 514.17 340.465 517.081 340.886C518.792 341.223 518.792 341.223 520.504 341.863C522.006 342.629 523.448 343.456 524.904 344.308V345.286H525.883C526.957 346.571 527.903 347.803 528.816 349.197C529.869 351.039 529.869 351.039 530.38 352.347C530.798 353.61 530.798 353.611 531.065 354.992C531.765 359.56 531.886 364.074 531.868 368.686C531.864 369.575 531.862 370.465 531.861 371.354C531.862 373.235 531.861 375.116 531.856 376.997C531.847 379.411 531.841 381.825 531.841 384.239C531.841 386.138 531.84 388.036 531.837 389.935C531.835 390.848 531.834 391.762 531.832 392.676C531.83 398.27 531.725 403.837 531.382 409.422C531.306 410.598 531.233 411.774 531.163 412.95C530.99 415.896 530.758 418.836 530.474 421.772C529.381 431.758 527.667 441.724 524.904 451.388C522.154 460.671 518.719 469.619 514.407 478.289C510.423 486.116 505.83 493.519 500.595 500.568C499.81 501.619 499.03 502.671 498.271 503.739C496.492 506.259 494.657 508.709 492.634 511.039C488.267 515.735 483.777 520.44 478.749 524.434C477.512 525.397 476.331 526.35 475.172 527.407C471.077 531.366 466.501 534.689 461.83 537.931C453.368 543.676 444.325 548.746 435.013 552.981C426.519 556.711 417.672 559.798 408.662 562.012C398.694 564.303 388.432 565.725 378.221 566.29C368.442 566.634 358.601 566.533 348.884 565.312C340.192 564.161 331.734 562.489 323.36 559.877C322.669 559.658 322.669 559.658 321.992 559.444C319.154 558.561 316.345 557.626 313.568 556.563C302.846 552.281 292.804 547.044 282.967 541.029C282.604 540.807 282.251 540.592 281.898 540.376C278.373 538.244 275.088 535.927 271.844 533.385C271.272 532.936 270.718 532.5 270.163 532.063C269.509 531.562 268.874 531.075 268.238 530.589C267.594 530.093 266.969 529.611 266.344 529.13C265.315 528.34 264.3 527.532 263.318 526.685V525.707H262.34C261.81 525.241 261.81 525.24 261.29 524.783C260.849 524.343 260.42 523.916 259.991 523.488C259.502 523.001 259.027 522.528 258.553 522.056C257.78 521.276 257.78 521.276 257.023 520.512C253.338 516.808 249.736 513.092 246.403 509.065C246.004 508.573 245.616 508.094 245.228 507.616C241.888 503.671 238.751 499.586 235.718 495.402C230.334 487.864 225.579 479.826 221.562 471.479C218.857 465.674 216.482 459.792 214.763 453.616C214.647 453.191 214.536 452.778 214.424 452.365C214.297 451.897 214.173 451.442 214.05 450.987C211.369 440.905 209.836 430.771 208.902 420.388C208.837 419.623 208.773 418.881 208.709 418.139C207.717 406.64 207.509 395.13 207.512 383.594C207.515 381.414 207.517 379.234 207.515 377.054C207.513 375.599 207.511 374.144 207.512 372.689C207.512 371.981 207.513 371.293 207.514 370.604C207.507 366.366 207.61 362.214 208.067 357.998C208.393 355.55 208.863 353.207 209.595 350.848C209.906 350.287 210.209 349.742 210.512 349.197C211.091 348.427 211.694 347.674 212.315 346.936C213.577 345.588 214.781 344.524 216.257 343.392L218.335 342.353C219.694 341.848 221.025 341.475 222.44 341.154C224.577 340.828 226.688 340.711 228.848 340.61C231 340.52 233.144 340.428 235.29 340.238C236.691 340.048 238.003 339.816 239.359 339.418C239.962 339.086 240.547 338.763 241.132 338.44C241.527 337.942 241.91 337.458 242.293 336.974C242.48 336.232 242.662 335.513 242.844 334.793C243.261 332.49 243.405 330.242 243.444 327.904C243.449 327.389 243.452 326.889 243.456 326.389C243.482 324.722 243.508 323.056 243.527 321.39C243.619 313.222 243.62 305.028 244.249 296.88C244.499 295.183 244.785 293.564 245.228 291.908C245.731 290.482 246.306 289.193 247.03 287.865C247.784 286.683 247.784 286.683 248.649 285.635C249.519 284.739 249.519 284.739 250.483 283.984C252.527 282.675 252.526 282.675 254.658 281.677C255.975 281.139 255.975 281.14 257.451 280.745C259.329 280.496 261.186 280.371 263.077 280.273C267.048 280.119 271.018 280.09 274.919 279.297C276.52 278.789 276.52 278.789 278.354 278.056C278.894 277.64 279.418 277.236 279.942 276.833C280.303 276.137 280.654 275.462 281.004 274.786C281.502 273.458 281.503 273.457 281.898 271.943C282.092 270.102 282.142 268.298 282.156 266.446C282.15 265.395 282.151 265.395 282.145 264.365C282.159 262.123 282.172 259.881 282.174 257.639C282.173 255.328 282.175 253.016 282.18 250.705C282.188 249.228 282.197 247.751 282.205 246.274C282.194 243.74 282.187 241.223 282.387 238.695C282.674 237.211 282.675 237.211 283.086 235.867C283.782 233.879 283.781 233.879 284.591 232.362C285.44 231.157 286.296 230.018 287.276 228.916C288.286 227.996 288.286 227.996 289.385 227.235C290.384 226.544 290.384 226.544 291.677 225.982C293.313 225.427 294.891 224.918 296.566 224.516C297.816 224.355 299.042 224.275 300.3 224.226C300.746 224.215 301.179 224.204 301.612 224.193C303.045 224.14 304.479 224.086 305.912 224.041C307.384 223.996 308.856 223.95 310.328 223.9C311.273 223.866 312.219 223.83 313.164 223.796C314.813 223.751 316.432 223.663 318.08 223.538C320.229 223.096 320.229 223.096 321.992 222.561C322.918 222.051 322.918 222.051 323.825 221.552C324.366 221.063 324.89 220.589 325.414 220.115C325.777 219.484 326.13 218.871 326.482 218.259C326.98 217.077 326.98 217.076 327.37 215.715C327.547 214.005 327.577 212.341 327.565 210.622C327.551 209.995 327.537 209.387 327.523 208.778C327.499 205.747 327.45 204.726 327.246 201.7C327.059 199.278 326.88 196.895 326.889 194.465C327.033 192.144 327.175 189.85 327.628 187.566C328.079 186.054 328.746 184.655 329.431 183.236C330.136 181.932 330.873 180.758 331.771 179.577C332.768 178.561 332.769 178.561 333.879 177.683C335.283 176.69 336.672 175.882 338.189 175.055C339.478 174.536 340.747 174.153 342.093 173.801C346.259 172.893 350.227 172.558 354.487 172.541C355.706 172.548 356.924 172.554 358.143 172.555ZM451.703 386.225C445.944 386.225 441.342 389.225 441.342 397.677C441.342 430.364 417.346 473.209 372.628 473.209C363.903 473.209 361.176 477.45 361.176 483.109V516.562C361.176 527.744 368.739 527.744 376.829 527.744C439.384 527.744 495.876 466.936 497.218 395.922H497.202C497.511 390.065 492.605 385.135 486.789 385.135L451.703 386.225Z" fill="url(#paint0_linear_9650_21)"/>
<defs>
<linearGradient id="paint0_linear_9650_21" x1="369.691" y1="172.541" x2="369.691" y2="566.462" gradientUnits="userSpaceOnUse">
<stop stop-color="#F7F7F7"/>
<stop offset="1" stop-color="#CAD0D5"/>
</linearGradient>
</defs>
</svg>
